<svg width="256" height="256" viewBox="0 0 256 256" fill="none" xmlns="http://www.w3.org/2000/svg">
<path d="M128 256C198.692 256 256 198.692 256 128C256 57.3075 198.692 0 128 0C57.3075 0 0 57.3075 0 128C0 198.692 57.3075 256 128 256Z" fill="#E6E9F2"/>
<path fill-rule="evenodd" clip-rule="evenodd" d="M128.2 23L64 129.641L128.2 167.785L192 129.641L128.2 23ZM64 142.355L128.2 180.09L192 142.355L128.2 233L64 142.355Z" fill="#828384"/>
<path fill-rule="evenodd" clip-rule="evenodd" d="M128.2 167.539V23L191.82 129.339L128.2 167.539ZM191.61 142.495L128.2 233V180.256L191.61 142.495Z" fill="#2F3030"/>
<path opacity="0.8" fill-rule="evenodd" clip-rule="evenodd" d="M128.2 100.93L64 129.641L128.2 167.785L192 129.641L128.2 100.93Z" fill="#131313"/>
<rect y="95" width="256" height="73" fill="black"/>
<path d="M60.918 130.316C60.7852 132.152 60.1055 133.598 58.8789 134.652C57.6602 135.707 56.0508 136.234 54.0508 136.234C51.8633 136.234 50.1406 135.5 48.8828 134.031C47.6328 132.555 47.0078 130.531 47.0078 127.961V126.918C47.0078 125.277 47.2969 123.832 47.875 122.582C48.4531 121.332 49.2773 120.375 50.3477 119.711C51.4258 119.039 52.6758 118.703 54.0977 118.703C56.0664 118.703 57.6523 119.23 58.8555 120.285C60.0586 121.34 60.7539 122.82 60.9414 124.727H57.4258C57.3398 123.625 57.0312 122.828 56.5 122.336C55.9766 121.836 55.1758 121.586 54.0977 121.586C52.9258 121.586 52.0469 122.008 51.4609 122.852C50.8828 123.688 50.5859 124.988 50.5703 126.754V128.043C50.5703 129.887 50.8477 131.234 51.4023 132.086C51.9648 132.938 52.8477 133.363 54.0508 133.363C55.1367 133.363 55.9453 133.117 56.4766 132.625C57.0156 132.125 57.3242 131.355 57.4023 130.316H60.918ZM77.2422 127.855C77.2422 129.535 76.9453 131.008 76.3516 132.273C75.7578 133.539 74.9062 134.516 73.7969 135.203C72.6953 135.891 71.4297 136.234 70 136.234C68.5859 136.234 67.3242 135.895 66.2148 135.215C65.1055 134.535 64.2461 133.566 63.6367 132.309C63.0273 131.043 62.7188 129.59 62.7109 127.949V127.105C62.7109 125.426 63.0117 123.949 63.6133 122.676C64.2227 121.395 65.0781 120.414 66.1797 119.734C67.2891 119.047 68.5547 118.703 69.9766 118.703C71.3984 118.703 72.6602 119.047 73.7617 119.734C74.8711 120.414 75.7266 121.395 76.3281 122.676C76.9375 123.949 77.2422 125.422 77.2422 127.094V127.855ZM73.6797 127.082C73.6797 125.293 73.3594 123.934 72.7188 123.004C72.0781 122.074 71.1641 121.609 69.9766 121.609C68.7969 121.609 67.8867 122.07 67.2461 122.992C66.6055 123.906 66.2812 125.25 66.2734 127.023V127.855C66.2734 129.598 66.5938 130.949 67.2344 131.91C67.875 132.871 68.7969 133.352 70 133.352C71.1797 133.352 72.0859 132.891 72.7188 131.969C73.3516 131.039 73.6719 129.688 73.6797 127.914V127.082ZM84.3906 118.938L88.7734 131.312L93.1328 118.938H97.75V136H94.2227V131.336L94.5742 123.285L89.9688 136H87.5547L82.9609 123.297L83.3125 131.336V136H79.7969V118.938H84.3906ZM104.559 136H101.043V118.938H104.559V136ZM121.703 136H118.188L111.344 124.773V136H107.828V118.938H111.344L118.199 130.188V118.938H121.703V136ZM138.273 133.844C137.641 134.602 136.746 135.191 135.59 135.613C134.434 136.027 133.152 136.234 131.746 136.234C130.27 136.234 128.973 135.914 127.855 135.273C126.746 134.625 125.887 133.688 125.277 132.461C124.676 131.234 124.367 129.793 124.352 128.137V126.977C124.352 125.273 124.637 123.801 125.207 122.559C125.785 121.309 126.613 120.355 127.691 119.699C128.777 119.035 130.047 118.703 131.5 118.703C133.523 118.703 135.105 119.188 136.246 120.156C137.387 121.117 138.062 122.52 138.273 124.363H134.852C134.695 123.387 134.348 122.672 133.809 122.219C133.277 121.766 132.543 121.539 131.605 121.539C130.41 121.539 129.5 121.988 128.875 122.887C128.25 123.785 127.934 125.121 127.926 126.895V127.984C127.926 129.773 128.266 131.125 128.945 132.039C129.625 132.953 130.621 133.41 131.934 133.41C133.254 133.41 134.195 133.129 134.758 132.566V129.625H131.559V127.035H138.273V133.844ZM155.957 131.523C155.957 130.859 155.723 130.352 155.254 130C154.785 129.641 153.941 129.266 152.723 128.875C151.504 128.477 150.539 128.086 149.828 127.703C147.891 126.656 146.922 125.246 146.922 123.473C146.922 122.551 147.18 121.73 147.695 121.012C148.219 120.285 148.965 119.719 149.934 119.312C150.91 118.906 152.004 118.703 153.215 118.703C154.434 118.703 155.52 118.926 156.473 119.371C157.426 119.809 158.164 120.43 158.688 121.234C159.219 122.039 159.484 122.953 159.484 123.977H155.969C155.969 123.195 155.723 122.59 155.23 122.16C154.738 121.723 154.047 121.504 153.156 121.504C152.297 121.504 151.629 121.688 151.152 122.055C150.676 122.414 150.438 122.891 150.438 123.484C150.438 124.039 150.715 124.504 151.27 124.879C151.832 125.254 152.656 125.605 153.742 125.934C155.742 126.535 157.199 127.281 158.113 128.172C159.027 129.062 159.484 130.172 159.484 131.5C159.484 132.977 158.926 134.137 157.809 134.98C156.691 135.816 155.188 136.234 153.297 136.234C151.984 136.234 150.789 135.996 149.711 135.52C148.633 135.035 147.809 134.375 147.238 133.539C146.676 132.703 146.395 131.734 146.395 130.633H149.922C149.922 132.516 151.047 133.457 153.297 133.457C154.133 133.457 154.785 133.289 155.254 132.953C155.723 132.609 155.957 132.133 155.957 131.523ZM175.891 127.855C175.891 129.535 175.594 131.008 175 132.273C174.406 133.539 173.555 134.516 172.445 135.203C171.344 135.891 170.078 136.234 168.648 136.234C167.234 136.234 165.973 135.895 164.863 135.215C163.754 134.535 162.895 133.566 162.285 132.309C161.676 131.043 161.367 129.59 161.359 127.949V127.105C161.359 125.426 161.66 123.949 162.262 122.676C162.871 121.395 163.727 120.414 164.828 119.734C165.938 119.047 167.203 118.703 168.625 118.703C170.047 118.703 171.309 119.047 172.41 119.734C173.52 120.414 174.375 121.395 174.977 122.676C175.586 123.949 175.891 125.422 175.891 127.094V127.855ZM172.328 127.082C172.328 125.293 172.008 123.934 171.367 123.004C170.727 122.074 169.812 121.609 168.625 121.609C167.445 121.609 166.535 122.07 165.895 122.992C165.254 123.906 164.93 125.25 164.922 127.023V127.855C164.922 129.598 165.242 130.949 165.883 131.91C166.523 132.871 167.445 133.352 168.648 133.352C169.828 133.352 170.734 132.891 171.367 131.969C172 131.039 172.32 129.688 172.328 127.914V127.082ZM192.461 127.855C192.461 129.535 192.164 131.008 191.57 132.273C190.977 133.539 190.125 134.516 189.016 135.203C187.914 135.891 186.648 136.234 185.219 136.234C183.805 136.234 182.543 135.895 181.434 135.215C180.324 134.535 179.465 133.566 178.855 132.309C178.246 131.043 177.938 129.59 177.93 127.949V127.105C177.93 125.426 178.23 123.949 178.832 122.676C179.441 121.395 180.297 120.414 181.398 119.734C182.508 119.047 183.773 118.703 185.195 118.703C186.617 118.703 187.879 119.047 188.98 119.734C190.09 120.414 190.945 121.395 191.547 122.676C192.156 123.949 192.461 125.422 192.461 127.094V127.855ZM188.898 127.082C188.898 125.293 188.578 123.934 187.938 123.004C187.297 122.074 186.383 121.609 185.195 121.609C184.016 121.609 183.105 122.07 182.465 122.992C181.824 123.906 181.5 125.25 181.492 127.023V127.855C181.492 129.598 181.812 130.949 182.453 131.91C183.094 132.871 184.016 133.352 185.219 133.352C186.398 133.352 187.305 132.891 187.938 131.969C188.57 131.039 188.891 129.688 188.898 127.914V127.082ZM208.891 136H205.375L198.531 124.773V136H195.016V118.938H198.531L205.387 130.188V118.938H208.891V136Z" fill="white"/>
</svg>
